# Blender 4.3.2
# www.blender.org
mtllib MTLs/arch_red.mtl
o 2
v 0.025000 -0.037500 -0.025000
v 0.025740 -0.037500 -0.025673
v 0.025000 -0.050000 -0.025000
v 0.025577 -0.050577 -0.025577
v 0.025000 -0.050000 0.025000
v 0.025577 -0.050577 0.025577
v 0.025000 0.050000 0.025000
v 0.025577 0.050577 0.025577
v 0.025000 0.050000 -0.025000
v 0.025577 0.050577 -0.025577
v 0.025000 0.037500 -0.025000
v 0.025740 0.037500 -0.025673
v 0.025000 0.035665 -0.013414
v 0.026000 0.035665 -0.013414
v 0.025000 0.030338 -0.002959
v 0.026000 0.030338 -0.002959
v 0.025000 0.022041 0.005338
v 0.026000 0.022041 0.005338
v 0.025000 0.011586 0.010665
v 0.026000 0.011586 0.010665
v 0.025000 0.000000 0.012500
v 0.026000 0.000000 0.012500
v 0.025000 -0.011586 0.010665
v 0.026000 -0.011586 0.010665
v 0.025000 -0.022041 0.005338
v 0.026000 -0.022041 0.005338
v 0.025000 -0.030338 -0.002959
v 0.026000 -0.030338 -0.002959
v 0.025000 -0.035665 -0.013414
v 0.026000 -0.035665 -0.013414
v -0.025009 -0.050000 0.025000
v -0.025586 -0.050577 0.025577
v -0.025009 -0.050000 -0.025000
v -0.025586 -0.050577 -0.025577
v -0.025009 -0.037500 -0.025000
v -0.025749 -0.037500 -0.025673
v -0.025009 -0.035665 -0.013414
v -0.026009 -0.035665 -0.013414
v -0.025009 0.050000 0.025000
v -0.025586 0.050577 0.025577
v -0.025009 0.000000 0.012500
v -0.026009 0.000000 0.012500
v -0.025009 0.011586 0.010665
v -0.026009 0.011586 0.010665
v -0.025009 -0.011586 0.010665
v -0.026009 -0.011586 0.010665
v -0.025009 -0.022041 0.005338
v -0.026009 -0.022041 0.005338
v -0.025009 -0.030338 -0.002959
v -0.026009 -0.030338 -0.002959
v -0.025009 0.050000 -0.025000
v -0.025586 0.050577 -0.025577
v -0.025009 0.022041 0.005338
v -0.026009 0.022041 0.005338
v -0.025009 0.030338 -0.002959
v -0.026009 0.030338 -0.002959
v -0.025009 0.035665 -0.013414
v -0.026009 0.035665 -0.013414
v -0.025009 0.037500 -0.025000
v -0.025749 0.037500 -0.025673
v 0.025289 -0.049789 -0.024789
v 0.025370 -0.037927 -0.024836
v 0.025500 -0.036146 -0.013258
v 0.025500 -0.030748 -0.002661
v 0.025500 -0.022339 0.005748
v 0.025500 -0.011742 0.011146
v 0.025500 0.000000 0.013006
v 0.025500 0.011742 0.011146
v 0.025500 0.022339 0.005748
v 0.025500 0.030748 -0.002661
v 0.025500 0.036146 -0.013258
v 0.025370 0.037927 -0.024836
v 0.025289 0.049789 -0.024789
v 0.025289 0.049789 0.024789
v 0.025289 -0.049789 0.024789
v -0.025298 -0.049789 -0.024789
v -0.025298 -0.049789 0.024789
v -0.025298 0.049789 0.024789
v -0.025298 0.049789 -0.024789
v -0.025379 0.037927 -0.024836
v -0.025509 0.036146 -0.013258
v -0.025509 0.030748 -0.002661
v -0.025509 0.022339 0.005748
v -0.025509 0.011742 0.011146
v -0.025509 0.000000 0.013006
v -0.025509 -0.011742 0.011146
v -0.025509 -0.022339 0.005748
v -0.025509 -0.030748 -0.002661
v -0.025509 -0.036146 -0.013258
v -0.025379 -0.037927 -0.024836
v 0.024789 -0.049789 0.025289
v 0.024789 0.049789 0.025289
v -0.024798 0.049789 0.025289
v -0.024798 -0.049789 0.025289
v 0.024789 0.049789 -0.025289
v 0.024870 0.038000 -0.025336
v -0.024879 0.038000 -0.025336
v -0.024798 0.049789 -0.025289
v 0.024789 -0.050289 -0.024789
v 0.024789 -0.050289 0.024789
v -0.024798 -0.050289 0.024789
v -0.024798 -0.050289 -0.024789
v 0.024870 -0.038000 -0.025336
v 0.024789 -0.049789 -0.025289
v -0.024798 -0.049789 -0.025289
v -0.024879 -0.038000 -0.025336
v 0.024789 0.050289 0.024789
v 0.024789 0.050289 -0.024789
v -0.024798 0.050289 -0.024789
v -0.024798 0.050289 0.024789
vn -0.4938 0.0033 0.8696
vn 0.9263 -0.0069 0.3766
vn -0.7366 -0.6676 0.1083
vn -0.9531 0.2899 -0.0864
vn -0.3525 0.8930 0.2800
vn 0.7640 -0.6396 0.0845
vn 0.4588 0.7190 -0.5221
vn 0.9426 0.3167 -0.1055
vn -0.7071 -0.6301 0.3210
vn -0.9533 0.2442 -0.1775
vn 0.7071 -0.6301 0.3210
vn 0.9533 0.2442 -0.1775
vn -0.7076 -0.4997 0.4997
vn -0.9533 0.1773 -0.2446
vn 0.7072 -0.4999 0.4999
vn 0.7073 -0.4999 0.4999
vn 0.9533 0.1775 -0.2442
vn -0.7071 -0.3210 0.6301
vn -0.9534 0.0932 -0.2869
vn 0.7071 -0.3210 0.6301
vn 0.9534 0.0932 -0.2869
vn -0.7068 -0.1107 0.6987
vn -0.9534 -0.0000 -0.3016
vn 0.7068 -0.1107 0.6987
vn 0.9536 -0.0000 -0.3012
vn -0.7072 0.1106 0.6983
vn -0.9534 -0.0932 -0.2869
vn 0.7068 0.1107 0.6987
vn 0.9535 -0.0931 -0.2866
vn -0.7071 0.3210 0.6301
vn -0.9533 -0.1775 -0.2442
vn 0.7071 0.3210 0.6301
vn 0.9533 -0.1775 -0.2442
vn -0.7076 0.4997 0.4997
vn -0.7073 0.4999 0.4999
vn -0.9533 -0.2442 -0.1775
vn 0.7072 0.4999 0.4999
vn 0.7073 0.4999 0.4999
vn 0.9533 -0.2442 -0.1775
vn -0.7071 0.6301 0.3210
vn -0.9531 -0.2899 -0.0864
vn 0.7071 0.6301 0.3210
vn 0.9426 -0.3167 -0.1055
vn -0.7366 0.6676 0.1083
vn -0.3523 -0.8930 0.2800
vn 0.7640 0.6396 0.0845
vn 0.4589 -0.7188 -0.5221
vn -0.4938 -0.0033 0.8696
vn 0.9263 0.0069 0.3766
vn -0.5906 -0.8069 -0.0000
vn -0.5906 -0.8070 -0.0000
vn 0.9391 -0.3436 -0.0000
vn -0.5907 -0.0000 -0.8069
vn 0.9391 -0.0000 -0.3437
vn -0.5906 0.8069 -0.0000
vn -0.5906 0.8070 -0.0000
vn 0.9391 0.3436 -0.0000
vn 0.5906 0.8069 -0.0000
vn 0.5906 0.8070 -0.0000
vn -0.9391 0.3436 -0.0000
vn 0.5907 -0.0000 -0.8069
vn -0.9391 -0.0000 -0.3437
vn 0.5906 -0.8069 -0.0000
vn 0.5906 -0.8070 -0.0000
vn -0.9391 -0.3436 -0.0000
vn 0.4938 -0.0033 0.8696
vn -0.9263 0.0069 0.3766
vn 0.7366 0.6676 0.1083
vn 0.9531 -0.2899 -0.0864
vn 0.3520 -0.8931 0.2801
vn -0.7640 0.6396 0.0845
vn -0.4594 -0.7188 -0.5218
vn -0.9426 -0.3167 -0.1055
vn 0.7076 0.4997 0.4997
vn 0.9533 -0.1773 -0.2446
vn -0.7072 0.4999 0.4999
vn 0.9534 -0.0932 -0.2869
vn 0.7072 0.1106 0.6983
vn -0.7068 0.1107 0.6987
vn -0.9533 0.1775 -0.2442
vn 0.7076 -0.4997 0.4997
vn -0.7072 -0.4999 0.4999
vn -0.7073 -0.4999 0.4999
vn 0.9531 0.2899 -0.0864
vn -0.9426 0.3167 -0.1055
vn 0.7366 -0.6676 0.1083
vn 0.3523 0.8930 0.2801
vn -0.7640 -0.6396 0.0845
vn -0.4585 0.7193 -0.5219
vn 0.4938 0.0033 0.8696
vn -0.9263 -0.0069 0.3766
vn -0.8069 -0.0000 -0.5907
vn -0.3437 -0.0000 0.9391
vn -0.0000 -0.8069 -0.5906
vn -0.0000 -0.3436 0.9391
vn 0.8069 -0.0000 -0.5907
vn 0.3437 -0.0000 0.9391
vn -0.0000 0.8069 -0.5906
vn -0.0000 0.3436 0.9391
vn -0.8783 -0.0039 0.4780
vn -0.8786 -0.0039 0.4776
vn -0.3530 0.0019 -0.9356
vn -0.0000 0.5580 0.8298
vn -0.0000 0.5582 -0.8297
vn 0.8786 -0.0039 0.4776
vn 0.3530 0.0019 -0.9356
vn -0.0000 -0.8069 0.5906
vn -0.0000 -0.3436 -0.9391
vn -0.8069 0.5907 -0.0000
vn -0.3436 -0.9391 -0.0000
vn -0.0000 0.5907 -0.8069
vn -0.0000 -0.9392 -0.3433
vn 0.8069 0.5907 -0.0000
vn 0.3438 -0.9390 -0.0000
vn 0.3437 -0.9391 -0.0000
vn -0.0000 0.5907 0.8069
vn -0.0000 -0.9392 0.3433
vn -0.8786 0.0039 0.4776
vn -0.3530 -0.0019 -0.9356
vn -0.0000 0.8069 0.5906
vn -0.0000 0.3436 -0.9391
vn 0.8786 0.0039 0.4776
vn 0.3530 -0.0019 -0.9356
vn -0.0000 -0.5580 0.8298
vn -0.0000 -0.5582 -0.8297
vn -0.8069 -0.5907 -0.0000
vn -0.3436 0.9391 -0.0000
vn -0.0000 -0.5907 0.8069
vn -0.0000 0.9392 0.3433
vn 0.8069 -0.5907 -0.0000
vn 0.3438 0.9390 -0.0000
vn 0.3437 0.9391 -0.0000
vn -0.0000 -0.5907 -0.8069
vn -0.0000 0.9392 -0.3433
vt 0.000000 0.000000
s 1
usemtl æè´¨
f 61/1/1 62/1/1 1/1/1 3/1/1
f 62/1/2 61/1/2 4/1/2 2/1/2
f 62/1/3 63/1/3 29/1/4 1/1/5
f 63/1/6 62/1/6 2/1/7 30/1/8
f 63/1/9 64/1/9 27/1/10 29/1/4
f 64/1/11 63/1/11 30/1/8 28/1/12
f 64/1/13 65/1/13 25/1/14 27/1/10
f 65/1/15 64/1/16 28/1/12 26/1/17
f 65/1/18 66/1/18 23/1/19 25/1/14
f 66/1/20 65/1/20 26/1/17 24/1/21
f 66/1/22 67/1/22 21/1/23 23/1/19
f 67/1/24 66/1/24 24/1/21 22/1/25
f 67/1/26 68/1/26 19/1/27 21/1/23
f 68/1/28 67/1/28 22/1/25 20/1/29
f 68/1/30 69/1/30 17/1/31 19/1/27
f 69/1/32 68/1/32 20/1/29 18/1/33
f 69/1/34 70/1/35 15/1/36 17/1/31
f 70/1/37 69/1/38 18/1/33 16/1/39
f 70/1/40 71/1/40 13/1/41 15/1/36
f 71/1/42 70/1/42 16/1/39 14/1/43
f 71/1/44 72/1/44 11/1/45 13/1/41
f 72/1/46 71/1/46 14/1/43 12/1/47
f 72/1/48 73/1/48 9/1/48 11/1/48
f 73/1/49 72/1/49 12/1/49 10/1/49
f 73/1/50 74/1/50 7/1/50 9/1/51
f 74/1/52 73/1/52 10/1/52 8/1/52
f 74/1/53 75/1/53 5/1/53 7/1/53
f 75/1/54 74/1/54 8/1/54 6/1/54
f 75/1/55 61/1/55 3/1/55 5/1/56
f 61/1/57 75/1/57 6/1/57 4/1/57
f 76/1/58 77/1/58 31/1/58 33/1/59
f 77/1/60 76/1/60 34/1/60 32/1/60
f 77/1/61 78/1/61 39/1/61 31/1/61
f 78/1/62 77/1/62 32/1/62 40/1/62
f 78/1/63 79/1/63 51/1/63 39/1/64
f 79/1/65 78/1/65 40/1/65 52/1/65
f 79/1/66 80/1/66 59/1/66 51/1/66
f 80/1/67 79/1/67 52/1/67 60/1/67
f 80/1/68 81/1/68 57/1/69 59/1/70
f 81/1/71 80/1/71 60/1/72 58/1/73
f 81/1/42 82/1/42 55/1/39 57/1/69
f 82/1/40 81/1/40 58/1/73 56/1/36
f 82/1/74 83/1/74 53/1/75 55/1/39
f 83/1/76 82/1/35 56/1/36 54/1/31
f 83/1/32 84/1/32 43/1/77 53/1/75
f 84/1/30 83/1/30 54/1/31 44/1/27
f 84/1/78 85/1/78 41/1/25 43/1/77
f 85/1/79 84/1/79 44/1/27 42/1/23
f 85/1/24 86/1/24 45/1/21 41/1/25
f 86/1/22 85/1/22 42/1/23 46/1/19
f 86/1/20 87/1/20 47/1/17 45/1/21
f 87/1/18 86/1/18 46/1/19 48/1/80
f 87/1/81 88/1/16 49/1/12 47/1/17
f 88/1/82 87/1/83 48/1/80 50/1/10
f 88/1/11 89/1/11 37/1/84 49/1/12
f 89/1/9 88/1/9 50/1/10 38/1/85
f 89/1/86 90/1/86 35/1/87 37/1/84
f 90/1/88 89/1/88 38/1/85 36/1/89
f 90/1/90 76/1/90 33/1/90 35/1/90
f 76/1/91 90/1/91 36/1/91 34/1/91
f 91/1/92 92/1/92 7/1/92 5/1/92
f 92/1/93 91/1/93 6/1/93 8/1/93
f 92/1/94 93/1/94 39/1/94 7/1/94
f 93/1/95 92/1/95 8/1/95 40/1/95
f 93/1/96 94/1/96 31/1/96 39/1/96
f 94/1/97 93/1/97 40/1/97 32/1/97
f 94/1/98 91/1/98 5/1/98 31/1/98
f 91/1/99 94/1/99 32/1/99 6/1/99
f 95/1/100 96/1/101 11/1/101 9/1/101
f 96/1/102 95/1/102 10/1/102 12/1/102
f 96/1/103 97/1/103 59/1/70 11/1/45
f 97/1/104 96/1/104 12/1/47 60/1/72
f 97/1/105 98/1/105 51/1/105 59/1/105
f 98/1/106 97/1/106 60/1/106 52/1/106
f 98/1/107 95/1/107 9/1/107 51/1/107
f 95/1/108 98/1/108 52/1/108 10/1/108
f 99/1/109 100/1/109 5/1/109 3/1/109
f 100/1/110 99/1/110 4/1/110 6/1/110
f 100/1/111 101/1/111 31/1/111 5/1/111
f 101/1/112 100/1/112 6/1/112 32/1/112
f 101/1/113 102/1/113 33/1/113 31/1/113
f 102/1/114 101/1/114 32/1/114 34/1/115
f 102/1/116 99/1/116 3/1/116 33/1/116
f 99/1/117 102/1/117 34/1/117 4/1/117
f 103/1/118 104/1/118 3/1/118 1/1/118
f 104/1/119 103/1/119 2/1/119 4/1/119
f 104/1/120 105/1/120 33/1/120 3/1/120
f 105/1/121 104/1/121 4/1/121 34/1/121
f 105/1/122 106/1/122 35/1/122 33/1/122
f 106/1/123 105/1/123 34/1/123 36/1/123
f 106/1/124 103/1/124 1/1/5 35/1/87
f 103/1/125 106/1/125 36/1/89 2/1/7
f 107/1/126 108/1/126 9/1/126 7/1/126
f 108/1/127 107/1/127 8/1/127 10/1/127
f 108/1/128 109/1/128 51/1/128 9/1/128
f 109/1/129 108/1/129 10/1/129 52/1/129
f 109/1/130 110/1/130 39/1/130 51/1/130
f 110/1/131 109/1/131 52/1/131 40/1/132
f 110/1/133 107/1/133 7/1/133 39/1/133
f 107/1/134 110/1/134 40/1/134 8/1/134
f 59/1/70 60/1/72 12/1/47 11/1/45
f 59/1/70 57/1/69 58/1/73 60/1/72
f 57/1/69 55/1/39 56/1/36 58/1/73
f 55/1/39 53/1/75 54/1/31 56/1/36
f 53/1/75 43/1/77 44/1/27 54/1/31
f 43/1/77 41/1/25 42/1/23 44/1/27
f 45/1/21 46/1/19 42/1/23 41/1/25
f 47/1/17 48/1/80 46/1/19 45/1/21
f 49/1/12 50/1/10 48/1/80 47/1/17
f 49/1/12 37/1/84 38/1/85 50/1/10
f 37/1/84 35/1/87 36/1/89 38/1/85
f 35/1/87 1/1/5 2/1/7 36/1/89
f 29/1/4 30/1/8 2/1/7 1/1/5
f 29/1/4 27/1/10 28/1/12 30/1/8
f 27/1/10 25/1/14 26/1/17 28/1/12
f 25/1/14 23/1/19 24/1/21 26/1/17
f 23/1/19 21/1/23 22/1/25 24/1/21
f 21/1/23 19/1/27 20/1/29 22/1/25
f 19/1/27 17/1/31 18/1/33 20/1/29
f 17/1/31 15/1/36 16/1/39 18/1/33
f 15/1/36 13/1/41 14/1/43 16/1/39
f 13/1/41 11/1/45 12/1/47 14/1/43
o arch
v -0.025000 0.037500 -0.025000
v -0.025000 0.037500 -0.025000
v -0.025000 0.037500 -0.025000
v -0.025000 0.050000 -0.025000
v -0.025000 0.050000 -0.025000
v -0.025000 0.050000 -0.025000
v -0.025000 0.050000 0.025000
v -0.025000 0.050000 0.025000
v -0.025000 0.050000 0.025000
v -0.025000 -0.050000 0.025000
v -0.025000 -0.050000 0.025000
v -0.025000 -0.050000 0.025000
v -0.025000 -0.050000 -0.025000
v -0.025000 -0.050000 -0.025000
v -0.025000 -0.050000 -0.025000
v -0.025000 -0.037500 -0.025000
v -0.025000 -0.037500 -0.025000
v -0.025000 -0.037500 -0.025000
v -0.025000 -0.035665 -0.013414
v -0.025000 -0.035665 -0.013414
v -0.025000 -0.030338 -0.002959
v -0.025000 -0.030338 -0.002959
v -0.025000 -0.022041 0.005338
v -0.025000 -0.022041 0.005338
v -0.025000 -0.011586 0.010665
v -0.025000 -0.011586 0.010665
v -0.025000 0.000000 0.012500
v -0.025000 0.000000 0.012500
v -0.025000 0.011586 0.010665
v -0.025000 0.011586 0.010665
v -0.025000 0.022041 0.005338
v -0.025000 0.022041 0.005338
v -0.025000 0.030338 -0.002959
v -0.025000 0.030338 -0.002959
v -0.025000 0.035665 -0.013414
v -0.025000 0.035665 -0.013414
v 0.025000 -0.037500 -0.025000
v 0.025000 -0.037500 -0.025000
v 0.025000 -0.037500 -0.025000
v 0.025000 -0.050000 -0.025000
v 0.025000 -0.050000 -0.025000
v 0.025000 -0.050000 -0.025000
v 0.025000 -0.050000 0.025000
v 0.025000 -0.050000 0.025000
v 0.025000 -0.050000 0.025000
v 0.025000 0.050000 0.025000
v 0.025000 0.050000 0.025000
v 0.025000 0.050000 0.025000
v 0.025000 0.050000 -0.025000
v 0.025000 0.050000 -0.025000
v 0.025000 0.050000 -0.025000
v 0.025000 0.037500 -0.025000
v 0.025000 0.037500 -0.025000
v 0.025000 0.037500 -0.025000
v 0.025000 0.035665 -0.013414
v 0.025000 0.035665 -0.013414
v 0.025000 0.030338 -0.002959
v 0.025000 0.030338 -0.002959
v 0.025000 0.022041 0.005338
v 0.025000 0.022041 0.005338
v 0.025000 0.011586 0.010665
v 0.025000 0.011586 0.010665
v 0.025000 0.000000 0.012500
v 0.025000 0.000000 0.012500
v 0.025000 -0.011586 0.010665
v 0.025000 -0.011586 0.010665
v 0.025000 -0.022041 0.005338
v 0.025000 -0.022041 0.005338
v 0.025000 -0.030338 -0.002959
v 0.025000 -0.030338 -0.002959
v 0.025000 -0.035665 -0.013414
v 0.025000 -0.035665 -0.013414
vn -1.0000 -0.0000 -0.0000
vn -0.0000 -0.0000 -1.0000
vn -0.0000 -0.9511 -0.3090
vn -0.0000 -1.0000 -0.0000
vn -0.0000 1.0000 -0.0000
vn -0.0000 -0.0000 1.0000
vn -0.0000 0.9511 -0.3090
vn -0.0000 0.8090 -0.5878
vn -0.0000 0.5878 -0.8090
vn -0.0000 0.3090 -0.9511
vn -0.0000 -0.3090 -0.9511
vn -0.0000 -0.5878 -0.8090
vn -0.0000 -0.8090 -0.5878
vn 1.0000 -0.0000 -0.0000
vt 0.000000 0.100000
vt 0.000000 0.087500
vt 0.050000 0.087500
vt 0.000000 0.085665
vt 0.050000 0.085665
vt 0.050000 0.100000
vt 0.000000 0.038414
vt 0.000000 0.000000
vt 0.000000 0.050000
vt 0.000000 0.061586
vt 0.000000 0.072041
vt 0.000000 0.080338
vt 0.000000 0.019662
vt 0.050000 0.000000
vt 0.000000 0.027959
vt 0.000000 0.014335
vt 0.000000 0.012500
vt 0.050000 0.012500
vt 0.050000 0.014335
vt 0.050000 0.019662
vt 0.050000 0.027959
vt 0.050000 0.038414
vt 0.050000 0.050000
vt 0.050000 0.061586
vt 0.050000 0.072041
vt 0.050000 0.080338
s 1
usemtl block_red_material
f 117/2/135 114/2/135 111/3/135
f 163/4/136 112/3/136 115/2/136
f 145/5/135 117/2/135 111/3/135
f 166/6/137 146/5/137 113/3/138
f 166/6/137 113/3/138 164/4/138
f 157/7/139 116/2/139 118/2/139
f 161/7/139 116/2/139 157/7/139
f 163/4/136 115/2/136 160/7/136
f 135/8/135 120/9/135 117/2/135
f 158/7/140 119/2/140 121/9/140
f 137/10/135 135/8/135 117/2/135
f 139/11/135 137/10/135 117/2/135
f 141/12/135 139/11/135 117/2/135
f 143/13/135 141/12/135 117/2/135
f 145/5/135 143/13/135 117/2/135
f 131/14/135 123/9/135 120/9/135
f 152/15/138 122/9/138 125/9/138
f 133/16/135 131/14/135 120/9/135
f 135/8/135 133/16/135 120/9/135
f 155/15/138 122/9/138 152/15/138
f 158/7/140 121/9/140 154/15/140
f 129/17/135 126/18/135 123/9/135
f 151/15/136 124/9/136 127/18/136
f 131/14/135 129/17/135 123/9/135
f 149/19/139 128/18/139 130/17/141
f 151/15/136 127/18/136 148/19/136
f 182/20/141 130/17/141 132/14/142
f 182/20/141 149/19/139 130/17/141
f 180/21/142 132/14/142 134/16/143
f 182/20/141 132/14/142 180/21/142
f 178/22/143 134/16/143 136/8/144
f 180/21/142 134/16/143 178/22/143
f 176/23/144 136/8/144 138/10/136
f 178/22/143 136/8/144 176/23/144
f 174/24/136 138/10/136 140/11/145
f 176/23/144 138/10/136 174/24/136
f 172/25/145 140/11/145 142/12/146
f 174/24/136 140/11/145 172/25/145
f 170/26/146 142/12/146 144/13/147
f 172/25/145 142/12/146 170/26/146
f 168/27/147 144/13/147 146/5/137
f 170/26/146 144/13/147 168/27/147
f 168/27/147 146/5/137 166/6/137
f 153/15/148 150/15/148 147/19/148
f 181/20/148 153/15/148 147/19/148
f 171/25/148 156/7/148 153/15/148
f 173/24/148 171/25/148 153/15/148
f 175/23/148 173/24/148 153/15/148
f 177/22/148 175/23/148 153/15/148
f 179/21/148 177/22/148 153/15/148
f 181/20/148 179/21/148 153/15/148
f 167/27/148 159/7/148 156/7/148
f 169/26/148 167/27/148 156/7/148
f 171/25/148 169/26/148 156/7/148
f 165/6/148 162/4/148 159/7/148
f 167/27/148 165/6/148 159/7/148