# Blender 4.2.0
# www.blender.org
mtllib MTLs/cuboid1_blue.mtl
o cuboid1
v -0.025000 0.025000 0.012500
v -0.025000 0.025000 0.012500
v -0.025000 0.025000 0.012500
v -0.025000 -0.025000 0.012500
v -0.025000 -0.025000 0.012500
v -0.025000 -0.025000 0.012500
v -0.025000 -0.025000 -0.012500
v -0.025000 -0.025000 -0.012500
v -0.025000 -0.025000 -0.012500
v -0.025000 0.025000 -0.012500
v -0.025000 0.025000 -0.012500
v -0.025000 0.025000 -0.012500
v 0.025000 0.025000 0.012500
v 0.025000 0.025000 0.012500
v 0.025000 0.025000 0.012500
v 0.025000 0.025000 -0.012500
v 0.025000 0.025000 -0.012500
v 0.025000 0.025000 -0.012500
v 0.025000 -0.025000 -0.012500
v 0.025000 -0.025000 -0.012500
v 0.025000 -0.025000 -0.012500
v 0.025000 -0.025000 0.012500
v 0.025000 -0.025000 0.012500
v 0.025000 -0.025000 0.012500
vn -1.0000 -0.0000 -0.0000
vn -0.0000 -0.0000 1.0000
vn -0.0000 1.0000 -0.0000
vn -0.0000 -1.0000 -0.0000
vn -0.0000 -0.0000 -1.0000
vn 1.0000 -0.0000 -0.0000
vt 0.000000 0.000000
vt 0.000000 0.050000
vt 0.050000 0.000000
vt 0.050000 0.050000
s 0
usemtl block_blue_material
f 7/1/1 4/1/1 1/2/1
f 23/3/2 2/2/2 5/1/2
f 10/2/1 7/1/1 1/2/1
f 15/4/3 12/2/3 3/2/3
f 23/3/2 14/4/2 2/2/2
f 20/3/4 6/1/4 8/1/4
f 24/3/4 6/1/4 20/3/4
f 17/4/5 9/1/5 11/2/5
f 21/3/5 9/1/5 17/4/5
f 18/4/3 12/2/3 15/4/3
f 22/3/6 16/4/6 13/4/6
f 22/3/6 19/3/6 16/4/6
o cuboid.001
v 0.025000 0.025000 0.012500
v 0.025577 0.025577 0.013077
v 0.025000 0.025000 -0.012500
v 0.025577 0.025577 -0.013077
v -0.024999 0.025000 0.012500
v -0.025576 0.025577 0.013077
v -0.024999 0.025000 -0.012500
v -0.025576 0.025577 -0.013077
v 0.025000 -0.024999 0.012500
v 0.025577 -0.025577 0.013077
v 0.025000 -0.024999 -0.012500
v 0.025577 -0.025577 -0.013077
v -0.024999 -0.024999 0.012500
v -0.025576 -0.025577 0.013077
v -0.024999 -0.024999 -0.012500
v -0.025576 -0.025577 -0.013077
v 0.024789 0.025289 -0.012289
v -0.024788 0.025289 -0.012289
v -0.024788 0.025289 0.012289
v 0.024789 0.025289 0.012289
v 0.024789 -0.025288 -0.012289
v 0.024789 -0.025288 0.012289
v -0.024788 -0.025288 0.012289
v -0.024788 -0.025288 -0.012289
v 0.024789 0.024789 0.012789
v -0.024788 0.024789 0.012789
v -0.024788 -0.024788 0.012789
v 0.024789 -0.024788 0.012789
v -0.025288 0.024789 0.012289
v -0.025288 0.024789 -0.012289
v -0.025288 -0.024788 -0.012289
v -0.025288 -0.024788 0.012289
v -0.024788 0.024789 -0.012789
v 0.024789 0.024789 -0.012789
v 0.024789 -0.024788 -0.012789
v -0.024788 -0.024788 -0.012789
v 0.025289 0.024789 -0.012289
v 0.025289 0.024789 0.012289
v 0.025289 -0.024788 0.012289
v 0.025289 -0.024788 -0.012289
vn -0.0000 -0.5907 0.8069
vn -0.0000 0.9391 0.3437
vn 0.8069 -0.5907 -0.0000
vn 0.3437 0.9391 -0.0000
vn -0.0000 -0.5907 -0.8069
vn -0.0000 0.9391 -0.3437
vn -0.8069 -0.5907 -0.0000
vn -0.3437 0.9391 -0.0000
vn -0.8069 0.5907 -0.0000
vn -0.3437 -0.9391 -0.0000
vn -0.0000 0.5907 -0.8069
vn -0.0000 -0.9391 -0.3437
vn 0.8069 0.5907 -0.0000
vn 0.3437 -0.9391 -0.0000
vn -0.0000 0.5907 0.8069
vn -0.0000 -0.9391 0.3437
vn -0.0000 -0.8069 -0.5907
vn -0.0000 -0.3437 0.9391
vn 0.8069 -0.0000 -0.5907
vn 0.3437 -0.0000 0.9391
vn -0.0000 0.8069 -0.5907
vn -0.0000 0.3437 0.9391
vn -0.8069 -0.0000 -0.5907
vn -0.3437 -0.0000 0.9391
vn 0.5907 -0.8069 -0.0000
vn -0.9391 -0.3437 -0.0000
vn 0.5907 -0.0000 0.8069
vn -0.9391 -0.0000 0.3437
vn 0.5907 0.8069 -0.0000
vn -0.9391 0.3437 -0.0000
vn 0.5907 -0.0000 -0.8069
vn -0.9391 -0.0000 -0.3437
vn -0.0000 -0.8069 0.5907
vn -0.0000 -0.3437 -0.9391
vn -0.8069 -0.0000 0.5907
vn -0.3437 -0.0000 -0.9391
vn -0.0000 0.8069 0.5907
vn -0.0000 0.3437 -0.9391
vn 0.8069 -0.0000 0.5907
vn 0.3437 -0.0000 -0.9391
vn -0.5907 -0.8069 -0.0000
vn 0.9391 -0.3437 -0.0000
vn -0.5907 -0.0000 -0.8069
vn 0.9391 -0.0000 -0.3437
vn -0.5907 0.8069 -0.0000
vn 0.9391 0.3437 -0.0000
vn -0.5907 -0.0000 0.8069
vn 0.9391 -0.0000 0.3437
vt 0.000000 0.000000
s 0
usemtl edge_cuboid1_blue
f 41/5/7 42/5/7 31/5/7 27/5/7
f 42/5/8 41/5/8 28/5/8 32/5/8
f 42/5/9 43/5/9 29/5/9 31/5/9
f 43/5/10 42/5/10 32/5/10 30/5/10
f 43/5/11 44/5/11 25/5/11 29/5/11
f 44/5/12 43/5/12 30/5/12 26/5/12
f 44/5/13 41/5/13 27/5/13 25/5/13
f 41/5/14 44/5/14 26/5/14 28/5/14
f 45/5/15 46/5/15 33/5/15 35/5/15
f 46/5/16 45/5/16 36/5/16 34/5/16
f 46/5/17 47/5/17 37/5/17 33/5/17
f 47/5/18 46/5/18 34/5/18 38/5/18
f 47/5/19 48/5/19 39/5/19 37/5/19
f 48/5/20 47/5/20 38/5/20 40/5/20
f 48/5/21 45/5/21 35/5/21 39/5/21
f 45/5/22 48/5/22 40/5/22 36/5/22
f 49/5/23 50/5/23 29/5/23 25/5/23
f 50/5/24 49/5/24 26/5/24 30/5/24
f 50/5/25 51/5/25 37/5/25 29/5/25
f 51/5/26 50/5/26 30/5/26 38/5/26
f 51/5/27 52/5/27 33/5/27 37/5/27
f 52/5/28 51/5/28 38/5/28 34/5/28
f 52/5/29 49/5/29 25/5/29 33/5/29
f 49/5/30 52/5/30 34/5/30 26/5/30
f 53/5/31 54/5/31 31/5/31 29/5/31
f 54/5/32 53/5/32 30/5/32 32/5/32
f 54/5/33 55/5/33 39/5/33 31/5/33
f 55/5/34 54/5/34 32/5/34 40/5/34
f 55/5/35 56/5/35 37/5/35 39/5/35
f 56/5/36 55/5/36 40/5/36 38/5/36
f 56/5/37 53/5/37 29/5/37 37/5/37
f 53/5/38 56/5/38 38/5/38 30/5/38
f 57/5/39 58/5/39 27/5/39 31/5/39
f 58/5/40 57/5/40 32/5/40 28/5/40
f 58/5/41 59/5/41 35/5/41 27/5/41
f 59/5/42 58/5/42 28/5/42 36/5/42
f 59/5/43 60/5/43 39/5/43 35/5/43
f 60/5/44 59/5/44 36/5/44 40/5/44
f 60/5/45 57/5/45 31/5/45 39/5/45
f 57/5/46 60/5/46 40/5/46 32/5/46
f 61/5/47 62/5/47 25/5/47 27/5/47
f 62/5/48 61/5/48 28/5/48 26/5/48
f 62/5/49 63/5/49 33/5/49 25/5/49
f 63/5/50 62/5/50 26/5/50 34/5/50
f 63/5/51 64/5/51 35/5/51 33/5/51
f 64/5/52 63/5/52 34/5/52 36/5/52
f 64/5/53 61/5/53 27/5/53 35/5/53
f 61/5/54 64/5/54 36/5/54 28/5/54