# Blender 4.3.2
# www.blender.org
mtllib MTLs/cuboid3_yellow.mtl
o cuboid_3
v -0.075000 0.025000 0.012500
v -0.075000 0.025000 0.012500
v -0.075000 0.025000 0.012500
v -0.075000 -0.025000 0.012500
v -0.075000 -0.025000 0.012500
v -0.075000 -0.025000 0.012500
v -0.075000 -0.025000 -0.012500
v -0.075000 -0.025000 -0.012500
v -0.075000 -0.025000 -0.012500
v -0.075000 0.025000 -0.012500
v -0.075000 0.025000 -0.012500
v -0.075000 0.025000 -0.012500
v 0.075000 0.025000 0.012500
v 0.075000 0.025000 0.012500
v 0.075000 0.025000 0.012500
v 0.075000 0.025000 -0.012500
v 0.075000 0.025000 -0.012500
v 0.075000 0.025000 -0.012500
v 0.075000 -0.025000 -0.012500
v 0.075000 -0.025000 -0.012500
v 0.075000 -0.025000 -0.012500
v 0.075000 -0.025000 0.012500
v 0.075000 -0.025000 0.012500
v 0.075000 -0.025000 0.012500
vn -1.0000 -0.0000 -0.0000
vn -0.0000 -0.0000 1.0000
vn -0.0000 1.0000 -0.0000
vn -0.0000 -1.0000 -0.0000
vn -0.0000 -0.0000 -1.0000
vn 1.0000 -0.0000 -0.0000
vt 0.000000 0.000000
vt 0.000000 0.050000
vt 0.150000 0.000000
vt 0.150000 0.050000
s 1
usemtl block_yellow_material
f 7/1/1 4/1/1 1/2/1
f 23/3/2 2/2/2 5/1/2
f 10/2/1 7/1/1 1/2/1
f 15/4/3 12/2/3 3/2/3
f 23/3/2 14/4/2 2/2/2
f 20/3/4 6/1/4 8/1/4
f 24/3/4 6/1/4 20/3/4
f 17/4/5 9/1/5 11/2/5
f 21/3/5 9/1/5 17/4/5
f 18/4/3 12/2/3 15/4/3
f 22/3/6 16/4/6 13/4/6
f 22/3/6 19/3/6 16/4/6
o 立方体
v -0.075000 -0.025000 0.012500
v -0.075442 -0.025442 0.012942
v -0.075000 0.025000 0.012500
v -0.075442 0.025442 0.012942
v -0.075000 -0.025000 -0.012500
v -0.075442 -0.025442 -0.012942
v -0.075000 0.025000 -0.012500
v -0.075442 0.025442 -0.012942
v 0.075000 -0.025000 0.012500
v 0.075442 -0.025442 0.012942
v 0.075000 0.025000 0.012500
v 0.075442 0.025442 0.012942
v 0.075000 -0.025000 -0.012500
v 0.075442 -0.025442 -0.012942
v 0.075000 0.025000 -0.012500
v 0.075442 0.025442 -0.012942
v -0.075221 -0.024838 0.012338
v -0.075221 0.024838 0.012338
v -0.075221 0.024838 -0.012338
v -0.075221 -0.024838 -0.012338
v -0.074838 -0.024838 -0.012721
v -0.074838 0.024838 -0.012721
v 0.074838 0.024838 -0.012721
v 0.074838 -0.024838 -0.012721
v 0.075221 -0.024838 -0.012338
v 0.075221 0.024838 -0.012338
v 0.075221 0.024838 0.012338
v 0.075221 -0.024838 0.012338
v 0.074838 -0.024838 0.012721
v 0.074838 0.024838 0.012721
v -0.074838 0.024838 0.012721
v -0.074838 -0.024838 0.012721
v -0.074838 -0.025221 -0.012338
v 0.074838 -0.025221 -0.012338
v 0.074838 -0.025221 0.012338
v -0.074838 -0.025221 0.012338
v 0.074838 0.025221 -0.012338
v -0.074838 0.025221 -0.012338
v -0.074838 0.025221 0.012338
v 0.074838 0.025221 0.012338
vn 0.5907 -0.0000 -0.8069
vn -0.9391 -0.0000 -0.3436
vn 0.5907 -0.8069 -0.0000
vn -0.9391 -0.3436 -0.0000
vn 0.5907 -0.0000 0.8069
vn -0.9391 -0.0000 0.3436
vn 0.5907 0.8069 -0.0000
vn -0.9391 0.3436 -0.0000
vn 0.8068 -0.0000 0.5908
vn 0.3436 -0.0000 -0.9391
vn -0.0000 -0.8069 0.5907
vn -0.0000 -0.3436 -0.9391
vn -0.8068 -0.0000 0.5908
vn -0.3436 -0.0000 -0.9391
vn -0.0000 0.8069 0.5907
vn -0.0000 0.3436 -0.9391
vn -0.5907 -0.0000 0.8069
vn 0.9391 -0.0000 0.3436
vn -0.5907 -0.8069 -0.0000
vn 0.9391 -0.3436 -0.0000
vn -0.5907 -0.0000 -0.8069
vn 0.9391 -0.0000 -0.3436
vn -0.5907 0.8069 -0.0000
vn 0.9391 0.3436 -0.0000
vn -0.8068 -0.0000 -0.5908
vn -0.3436 -0.0000 0.9391
vn -0.0000 -0.8069 -0.5907
vn -0.0000 -0.3436 0.9391
vn 0.8068 -0.0000 -0.5908
vn 0.3436 -0.0000 0.9391
vn -0.0000 0.8069 -0.5907
vn -0.0000 0.3436 0.9391
vn -0.0000 0.5909 0.8067
vn -0.0000 -0.9391 0.3436
vn -0.8068 0.5908 -0.0000
vn -0.3436 -0.9391 -0.0000
vn -0.0000 0.5909 -0.8067
vn -0.0000 -0.9391 -0.3436
vn 0.8068 0.5908 -0.0000
vn 0.3436 -0.9391 -0.0000
vn -0.0000 -0.5909 0.8067
vn -0.0000 0.9391 0.3436
vn 0.8068 -0.5908 -0.0000
vn 0.3436 0.9391 -0.0000
vn -0.0000 -0.5909 -0.8067
vn -0.0000 0.9391 -0.3436
vn -0.8068 -0.5908 -0.0000
vn -0.3436 0.9391 -0.0000
vt 0.375000 0.000000
vt 0.625000 0.000000
vt 0.625000 0.250000
vt 0.375000 0.250000
vt 0.625000 0.500000
vt 0.375000 0.500000
vt 0.625000 0.750000
vt 0.375000 0.750000
vt 0.625000 1.000000
vt 0.375000 1.000000
vt 0.125000 0.500000
vt 0.125000 0.750000
vt 0.875000 0.500000
vt 0.875000 0.750000
s 1
usemtl edge_cuboid3_yellow
f 41/5/7 42/6/7 27/6/7 25/5/7
f 42/6/8 41/5/8 26/5/8 28/6/8
f 42/6/9 43/7/9 31/7/9 27/6/9
f 43/7/10 42/6/10 28/6/10 32/7/10
f 43/7/11 44/8/11 29/8/11 31/7/11
f 44/8/12 43/7/12 32/7/12 30/8/12
f 44/8/13 41/5/13 25/5/13 29/8/13
f 41/5/14 44/8/14 30/8/14 26/5/14
f 45/8/15 46/7/15 31/7/15 29/8/15
f 46/7/16 45/8/16 30/8/16 32/7/16
f 46/7/17 47/9/17 39/9/17 31/7/17
f 47/9/18 46/7/18 32/7/18 40/9/18
f 47/9/19 48/10/19 37/10/19 39/9/19
f 48/10/20 47/9/20 40/9/20 38/10/20
f 48/10/21 45/8/21 29/8/21 37/10/21
f 45/8/22 48/10/22 38/10/22 30/8/22
f 49/10/23 50/9/23 39/9/23 37/10/23
f 50/9/24 49/10/24 38/10/24 40/9/24
f 50/9/25 51/11/25 35/11/25 39/9/25
f 51/11/26 50/9/26 40/9/26 36/11/26
f 51/11/27 52/12/27 33/12/27 35/11/27
f 52/12/28 51/11/28 36/11/28 34/12/28
f 52/12/29 49/10/29 37/10/29 33/12/29
f 49/10/30 52/12/30 34/12/30 38/10/30
f 53/12/31 54/11/31 35/11/31 33/12/31
f 54/11/32 53/12/32 34/12/32 36/11/32
f 54/11/33 55/13/33 27/13/33 35/11/33
f 55/13/34 54/11/34 36/11/34 28/13/34
f 55/13/35 56/14/35 25/14/35 27/13/35
f 56/14/36 55/13/36 28/13/36 26/14/36
f 56/14/37 53/12/37 33/12/37 25/14/37
f 53/12/38 56/14/38 26/14/38 34/12/38
f 57/15/39 58/10/39 37/10/39 29/15/39
f 58/10/40 57/15/40 30/15/40 38/10/40
f 58/10/41 59/12/41 33/12/41 37/10/41
f 59/12/42 58/10/42 38/10/42 34/12/42
f 59/12/43 60/16/43 25/16/43 33/12/43
f 60/16/44 59/12/44 34/12/44 26/16/44
f 60/16/45 57/15/45 29/15/45 25/16/45
f 57/15/46 60/16/46 26/16/46 30/15/46
f 61/9/47 62/17/47 31/17/47 39/9/47
f 62/17/48 61/9/48 40/9/48 32/17/48
f 62/17/49 63/18/49 27/18/49 31/17/49
f 63/18/50 62/17/50 32/17/50 28/18/50
f 63/18/51 64/11/51 35/11/51 27/18/51
f 64/11/52 63/18/52 28/18/52 36/11/52
f 64/11/53 61/9/53 39/9/53 35/11/53
f 61/9/54 64/11/54 36/11/54 40/9/54