# Blender 4.3.2
# www.blender.org
mtllib MTLs/semi_cylinder_yellow.mtl
o semi_cylinder
v -0.025000 -0.025000 0.000000
v -0.025000 -0.025000 0.000000
v -0.025000 -0.025000 0.000000
v -0.025000 0.025000 -0.000000
v -0.025000 0.025000 -0.000000
v -0.025000 0.025000 -0.000000
v -0.025000 0.023776 0.007725
v -0.025000 0.023776 0.007725
v -0.025000 0.020225 0.014695
v -0.025000 0.020225 0.014695
v -0.025000 0.014695 0.020225
v -0.025000 0.014695 0.020225
v -0.025000 0.007725 0.023776
v -0.025000 0.007725 0.023776
v -0.025000 0.000000 0.025000
v -0.025000 0.000000 0.025000
v -0.025000 -0.007725 0.023776
v -0.025000 -0.007725 0.023776
v -0.025000 -0.014695 0.020225
v -0.025000 -0.014695 0.020225
v -0.025000 -0.020225 0.014695
v -0.025000 -0.020225 0.014695
v -0.025000 -0.023776 0.007725
v -0.025000 -0.023776 0.007725
v 0.025000 -0.025000 0.000000
v 0.025000 -0.025000 0.000000
v 0.025000 -0.025000 0.000000
v 0.025000 -0.023776 0.007725
v 0.025000 -0.023776 0.007725
v 0.025000 -0.020225 0.014695
v 0.025000 -0.020225 0.014695
v 0.025000 -0.014695 0.020225
v 0.025000 -0.014695 0.020225
v 0.025000 -0.007725 0.023776
v 0.025000 -0.007725 0.023776
v 0.025000 0.000000 0.025000
v 0.025000 0.000000 0.025000
v 0.025000 0.007725 0.023776
v 0.025000 0.007725 0.023776
v 0.025000 0.014695 0.020225
v 0.025000 0.014695 0.020225
v 0.025000 0.020225 0.014695
v 0.025000 0.020225 0.014695
v 0.025000 0.023776 0.007725
v 0.025000 0.023776 0.007725
v 0.025000 0.025000 -0.000000
v 0.025000 0.025000 -0.000000
v 0.025000 0.025000 -0.000000
vn -1.0000 -0.0000 -0.0000
vn -0.0000 -0.0000 -1.0000
vn -0.0000 -0.9511 0.3090
vn -0.0000 -1.0000 -0.0000
vn -0.0000 1.0000 -0.0000
vn -0.0000 0.9511 0.3090
vn -0.0000 0.8090 0.5878
vn -0.0000 0.5878 0.8090
vn -0.0000 0.3090 0.9511
vn -0.0000 -0.0000 1.0000
vn -0.0000 -0.3090 0.9511
vn -0.0000 -0.5878 0.8090
vn -0.0000 -0.8090 0.5878
vn 1.0000 -0.0000 -0.0000
vt 0.000000 0.048776
vt 0.000000 0.050000
vt 0.000000 0.000000
vt 0.050000 0.050000
vt 0.000000 0.045225
vt 0.000000 0.039695
vt 0.000000 0.032725
vt 0.000000 0.025000
vt 0.000000 0.017275
vt 0.000000 0.010305
vt 0.000000 0.004775
vt 0.000000 0.001224
vt 0.050000 0.001224
vt 0.050000 0.000000
vt 0.050000 0.048776
vt 0.050000 0.045225
vt 0.050000 0.039695
vt 0.050000 0.032725
vt 0.050000 0.025000
vt 0.050000 0.017275
vt 0.050000 0.010305
vt 0.050000 0.004775
s 1
usemtl block_yellow_material
f 7/1/1 4/2/1 1/3/1
f 48/4/2 3/3/2 6/2/2
f 9/5/1 7/1/1 1/3/1
f 11/6/1 9/5/1 1/3/1
f 13/7/1 11/6/1 1/3/1
f 15/8/1 13/7/1 1/3/1
f 17/9/1 15/8/1 1/3/1
f 19/10/1 17/9/1 1/3/1
f 21/11/1 19/10/1 1/3/1
f 23/12/1 21/11/1 1/3/1
f 29/13/3 24/12/3 2/3/4
f 29/13/3 2/3/4 26/14/4
f 48/4/2 27/14/2 3/3/2
f 47/4/5 5/2/5 8/1/6
f 45/15/6 8/1/6 10/5/7
f 47/4/5 8/1/6 45/15/6
f 43/16/7 10/5/7 12/6/8
f 45/15/6 10/5/7 43/16/7
f 41/17/8 12/6/8 14/7/9
f 43/16/7 12/6/8 41/17/8
f 39/18/9 14/7/9 16/8/10
f 41/17/8 14/7/9 39/18/9
f 37/19/10 16/8/10 18/9/11
f 39/18/9 16/8/10 37/19/10
f 35/20/11 18/9/11 20/10/12
f 37/19/10 18/9/11 35/20/11
f 33/21/12 20/10/12 22/11/13
f 35/20/11 20/10/12 33/21/12
f 31/22/13 22/11/13 24/12/3
f 33/21/12 22/11/13 31/22/13
f 31/22/13 24/12/3 29/13/3
f 46/4/14 28/13/14 25/14/14
f 46/4/14 30/22/14 28/13/14
f 46/4/14 32/21/14 30/22/14
f 46/4/14 34/20/14 32/21/14
f 46/4/14 36/19/14 34/20/14
f 46/4/14 38/18/14 36/19/14
f 46/4/14 40/17/14 38/18/14
f 46/4/14 42/16/14 40/17/14
f 46/4/14 44/15/14 42/16/14
o semi_cylinder.001
v 0.025000 -0.025000 0.000000
v 0.025669 -0.025000 -0.000743
v 0.025000 -0.023776 0.007725
v 0.026000 -0.023776 0.007725
v 0.025000 -0.020225 0.014695
v 0.026000 -0.020225 0.014695
v 0.025000 -0.014695 0.020225
v 0.026000 -0.014695 0.020225
v 0.025000 -0.007725 0.023776
v 0.026000 -0.007725 0.023776
v 0.025000 0.000000 0.025000
v 0.026000 0.000000 0.025000
v 0.025000 0.007725 0.023776
v 0.026000 0.007725 0.023776
v 0.025000 0.014695 0.020225
v 0.026000 0.014695 0.020225
v 0.025000 0.020225 0.014695
v 0.026000 0.020225 0.014695
v 0.025000 0.023776 0.007725
v 0.026000 0.023776 0.007725
v 0.025000 0.025000 -0.000000
v 0.025669 0.025000 -0.000743
v -0.025063 0.025000 -0.000000
v -0.025732 0.025000 -0.000743
v -0.025063 -0.025000 0.000000
v -0.025732 -0.025000 -0.000743
v -0.025063 -0.023776 0.007725
v -0.026063 -0.023776 0.007725
v -0.025063 -0.020225 0.014695
v -0.026063 -0.020225 0.014695
v -0.025063 -0.014695 0.020225
v -0.026063 -0.014695 0.020225
v -0.025063 -0.007725 0.023776
v -0.026063 -0.007725 0.023776
v -0.025063 0.000000 0.025000
v -0.026063 0.000000 0.025000
v -0.025063 0.007725 0.023776
v -0.026063 0.007725 0.023776
v -0.025063 0.014695 0.020225
v -0.026063 0.014695 0.020225
v -0.025063 0.020225 0.014695
v -0.026063 0.020225 0.014695
v -0.025063 0.023776 0.007725
v -0.026063 0.023776 0.007725
v 0.025334 0.024415 0.000128
v 0.025500 0.023295 0.007569
v 0.025500 0.019815 0.014397
v 0.025500 0.014397 0.019815
v 0.025500 0.007569 0.023295
v 0.025500 0.000000 0.024494
v 0.025500 -0.007569 0.023295
v 0.025500 -0.014397 0.019815
v 0.025500 -0.019815 0.014397
v 0.025500 -0.023295 0.007569
v 0.025334 -0.024415 0.000128
v -0.025397 0.024415 0.000128
v -0.025397 -0.024415 0.000128
v -0.025563 -0.023295 0.007569
v -0.025563 -0.019815 0.014397
v -0.025563 -0.014397 0.019815
v -0.025563 -0.007569 0.023295
v -0.025563 0.000000 0.024494
v -0.025563 0.007569 0.023295
v -0.025563 0.014397 0.019815
v -0.025563 0.019815 0.014397
v -0.025563 0.023295 0.007569
v 0.024834 0.024500 -0.000372
v 0.024834 -0.024500 -0.000372
v -0.024897 -0.024500 -0.000372
v -0.024897 0.024500 -0.000372
vn -0.7859 -0.6124 -0.0861
vn 0.7412 -0.6604 -0.1204
vn -0.7071 -0.6301 -0.3210
vn 0.7071 -0.6301 -0.3210
vn -0.7071 -0.5000 -0.5000
vn 0.7071 -0.5000 -0.5000
vn -0.7071 -0.3210 -0.6301
vn 0.7071 -0.3210 -0.6301
vn -0.7071 -0.1107 -0.6984
vn 0.7071 -0.1107 -0.6984
vn -0.7071 0.1107 -0.6984
vn 0.7071 0.1107 -0.6984
vn -0.7071 0.3210 -0.6301
vn 0.7071 0.3210 -0.6301
vn -0.7071 0.5000 -0.5000
vn 0.7071 0.5000 -0.5000
vn -0.7071 0.6301 -0.3210
vn 0.7071 0.6301 -0.3210
vn -0.7859 0.6124 -0.0861
vn 0.7412 0.6604 -0.1204
vn -0.3583 -0.0000 0.9336
vn 0.9336 -0.0000 0.3583
vn 0.3583 -0.0000 0.9336
vn -0.9336 -0.0000 0.3583
vn 0.7859 0.6124 -0.0861
vn -0.7412 0.6604 -0.1204
vn 0.7071 0.3210 -0.6300
vn 0.7071 -0.3210 -0.6300
vn 0.7859 -0.6124 -0.0861
vn -0.7412 -0.6604 -0.1204
vn -0.9135 -0.0000 0.4068
vn -0.4068 -0.0000 -0.9135
vn -0.0000 0.5966 0.8026
vn -0.0000 0.5966 -0.8026
vn 0.9135 -0.0000 0.4068
vn 0.4068 -0.0000 -0.9135
vn -0.0000 -0.5966 0.8026
vn -0.0000 -0.5966 -0.8026
vn -0.0658 0.9868 0.1478
vn -0.0000 0.8910 0.4539
vn -0.0000 0.7071 0.7071
vn -0.0000 0.4540 0.8910
vn -0.0000 0.1565 0.9877
vn -0.0000 -0.1565 0.9877
vn -0.0000 -0.4540 0.8910
vn -0.0000 -0.7071 0.7071
vn -0.0000 -0.8910 0.4540
vn -0.0658 -0.9868 0.1478
vn 0.0658 0.9868 0.1478
vn -0.0000 0.8910 0.4540
vn 0.0658 -0.9868 0.1478
vn -0.0000 -1.0000 -0.0000
vn -0.0000 1.0000 -0.0000
vt 0.000000 0.000000
s 0
usemtl edge_semi_cylinder_yellow
f 93/23/15 94/23/15 67/23/15 69/23/15
f 94/23/16 93/23/16 70/23/16 68/23/16
f 94/23/17 95/23/17 65/23/17 67/23/17
f 95/23/18 94/23/18 68/23/18 66/23/18
f 95/23/19 96/23/19 63/23/19 65/23/19
f 96/23/20 95/23/20 66/23/20 64/23/20
f 96/23/21 97/23/21 61/23/21 63/23/21
f 97/23/22 96/23/22 64/23/22 62/23/22
f 97/23/23 98/23/23 59/23/23 61/23/23
f 98/23/24 97/23/24 62/23/24 60/23/24
f 98/23/25 99/23/25 57/23/25 59/23/25
f 99/23/26 98/23/26 60/23/26 58/23/26
f 99/23/27 100/23/27 55/23/27 57/23/27
f 100/23/28 99/23/28 58/23/28 56/23/28
f 100/23/29 101/23/29 53/23/29 55/23/29
f 101/23/30 100/23/30 56/23/30 54/23/30
f 101/23/31 102/23/31 51/23/31 53/23/31
f 102/23/32 101/23/32 54/23/32 52/23/32
f 102/23/33 103/23/33 49/23/33 51/23/33
f 103/23/34 102/23/34 52/23/34 50/23/34
f 103/23/35 93/23/35 69/23/35 49/23/35
f 93/23/36 103/23/36 50/23/36 70/23/36
f 104/23/37 105/23/37 73/23/37 71/23/37
f 105/23/38 104/23/38 72/23/38 74/23/38
f 105/23/39 106/23/39 75/23/39 73/23/39
f 106/23/40 105/23/40 74/23/40 76/23/40
f 106/23/32 107/23/32 77/23/32 75/23/32
f 107/23/31 106/23/31 76/23/31 78/23/31
f 107/23/30 108/23/30 79/23/30 77/23/30
f 108/23/29 107/23/29 78/23/29 80/23/29
f 108/23/41 109/23/41 81/23/41 79/23/41
f 109/23/27 108/23/27 80/23/27 82/23/27
f 109/23/26 110/23/26 83/23/26 81/23/26
f 110/23/25 109/23/25 82/23/25 84/23/25
f 110/23/24 111/23/24 85/23/24 83/23/24
f 111/23/23 110/23/23 84/23/23 86/23/23
f 111/23/42 112/23/42 87/23/42 85/23/42
f 112/23/21 111/23/21 86/23/21 88/23/21
f 112/23/20 113/23/20 89/23/20 87/23/20
f 113/23/19 112/23/19 88/23/19 90/23/19
f 113/23/18 114/23/18 91/23/18 89/23/18
f 114/23/17 113/23/17 90/23/17 92/23/17
f 114/23/43 104/23/43 71/23/43 91/23/43
f 104/23/44 114/23/44 92/23/44 72/23/44
f 115/23/45 116/23/45 49/23/45 69/23/45
f 116/23/46 115/23/46 70/23/46 50/23/46
f 116/23/47 117/23/47 73/23/47 49/23/47
f 117/23/48 116/23/48 50/23/48 74/23/48
f 117/23/49 118/23/49 71/23/49 73/23/49
f 118/23/50 117/23/50 74/23/50 72/23/50
f 118/23/51 115/23/51 69/23/51 71/23/51
f 115/23/52 118/23/52 72/23/52 70/23/52
f 71/23/53 72/23/53 92/23/53 91/23/53
f 91/23/54 92/23/54 90/23/54 89/23/54
f 89/23/55 90/23/55 88/23/55 87/23/55
f 87/23/56 88/23/56 86/23/56 85/23/56
f 85/23/57 86/23/57 84/23/57 83/23/57
f 83/23/58 84/23/58 82/23/58 81/23/58
f 81/23/59 82/23/59 80/23/59 79/23/59
f 79/23/60 80/23/60 78/23/60 77/23/60
f 77/23/61 78/23/61 76/23/61 75/23/61
f 75/23/62 76/23/62 74/23/62 73/23/62
f 67/23/63 68/23/63 70/23/63 69/23/63
f 65/23/64 66/23/64 68/23/64 67/23/64
f 63/23/55 64/23/55 66/23/55 65/23/55
f 61/23/56 62/23/56 64/23/56 63/23/56
f 59/23/57 60/23/57 62/23/57 61/23/57
f 57/23/58 58/23/58 60/23/58 59/23/58
f 55/23/59 56/23/59 58/23/59 57/23/59
f 53/23/60 54/23/60 56/23/60 55/23/60
f 51/23/61 52/23/61 54/23/61 53/23/61
f 49/23/65 50/23/65 52/23/65 51/23/65
f 73/23/66 74/23/66 50/23/66 49/23/66
f 69/23/67 70/23/67 72/23/67 71/23/67
